<?xml version="1.0" encoding="UTF-8"?>
<svg id="_2" data-name="2" xmlns="http://www.w3.org/2000/svg" xmlns:xlink="http://www.w3.org/1999/xlink" viewBox="0 0 837.39 979.62">
  <defs>
    <style>
      .cls-1 {
        mask: url(#mask);
      }

      .cls-2 {
        fill: #2a437b;
      }

      .cls-2, .cls-3, .cls-4, .cls-5, .cls-6, .cls-7 {
        fill-rule: evenodd;
      }

      .cls-3 {
        fill: #333a3a;
      }

      .cls-4 {
        fill: #4e5657;
      }

      .cls-8 {
        fill: url(#linear-gradient-3);
      }

      .cls-9 {
        fill: url(#linear-gradient-2);
      }

      .cls-10 {
        fill: url(#linear-gradient);
      }

      .cls-11 {
        mask: url(#mask-1);
      }

      .cls-5 {
        fill: #496272;
      }

      .cls-12 {
        font-family: Roboto-Regular, Roboto;
        font-size: 96px;
      }

      .cls-12, .cls-13, .cls-14 {
        fill: #333939;
      }

      .cls-15 {
        clip-rule: evenodd;
        fill: none;
      }

      .cls-16 {
        font-family: Pacifico-Regular, Pacifico;
        font-size: 225px;
      }

      .cls-16, .cls-6 {
        fill: #00a1cf;
      }

      .cls-13 {
        font-family: MyriadPro-Regular, 'Myriad Pro';
        font-size: 120px;
      }

      .cls-14 {
        font-family: Montserrat-ExtraBold, Montserrat;
        font-size: 312px;
        font-weight: 700;
      }

      .cls-17 {
        letter-spacing: -.01em;
      }

      .cls-18 {
        letter-spacing: -.02em;
      }

      .cls-19 {
        letter-spacing: -.06em;
      }

      .cls-7 {
        fill: #a3a9b0;
      }

      .cls-20 {
        clip-path: url(#clippath);
      }

      .cls-21 {
        letter-spacing: .04em;
      }
    </style>
    <clipPath id="clippath">
      <path class="cls-15" d="M9.4,124.62c113.47,112.57,320.1,53.55,384.02,154.32-41.55-11.06-111.4-4.45-147.39,11.25,0,0,40.4-3.23,63.67-1.63,23.76,50.82,53.13,17.95,89.72,16.26,101.11-4.65,177.15,67.09,194.77,151.5-8.85-99.4-47.22-162.4-168.59-170.09l-10.4-16.4c-52.34-66.75-113.2-79.12-136.88-93.88l276.31-.84V49.95c0-17.93-14.66-32.6-32.59-32.6H41.99c-17.93,0-32.59,14.67-32.59,32.6v136.52c42.48,21.99,127.05,38.7,127.05,38.7C49.27,188.79,9.4,124.62,9.4,124.62"/>
    </clipPath>
    <linearGradient id="linear-gradient" x1="9.4" y1="236.84" x2="594.19" y2="236.84" gradientUnits="userSpaceOnUse">
      <stop offset="0" stop-color="#00aae8"/>
      <stop offset="1" stop-color="#53caf5"/>
    </linearGradient>
    <linearGradient id="linear-gradient-2" x1="-3232.43" y1="1310.38" x2="-2234.5" y2="56.61" gradientTransform="translate(2761.16 -255.6)" gradientUnits="userSpaceOnUse">
      <stop offset="0" stop-color="#fff"/>
      <stop offset="1" stop-color="#000"/>
    </linearGradient>
    <mask id="mask" x="28.74" y="17.35" width="525.88" height="157.76" maskUnits="userSpaceOnUse">
      <rect class="cls-9" x="28.74" y="17.35" width="525.88" height="157.76"/>
    </mask>
    <linearGradient id="linear-gradient-3" x1="-2914.18" y1="1000.62" x2="-2440.83" y2="613.38" gradientTransform="translate(2767.63 -156.52)" xlink:href="#linear-gradient-2"/>
    <mask id="mask-1" x="62.52" y="506.53" width="179.74" height="186.05" maskUnits="userSpaceOnUse">
      <rect class="cls-8" x="62.52" y="506.53" width="179.74" height="186.05"/>
    </mask>
  </defs>
  <g>
    <g class="cls-20">
      <rect class="cls-10" x="9.4" y="17.35" width="584.8" height="438.97"/>
    </g>
    <path class="cls-6" d="M391.57,276.18c.62.92,1.25,1.82,1.85,2.76,0,0-.62-.99-1.85-2.76M9.4,124.62c110.59,109.71,309.64,56.46,378.86,146.97C292.43,142.96,122.72,177.97,16.98,76.01c-2.61-2.52-5.14-4.92-7.59-7.19v117.66c42.48,21.99,127.05,38.7,127.05,38.7C49.27,188.79,9.4,124.62,9.4,124.62Z"/>
    <g class="cls-1">
      <path class="cls-2" d="M554.62,175.11V49.95c0-17.93-14.66-32.6-32.59-32.6H41.99c-4.71,0-9.19,1.02-13.25,2.83,334.17-3.35,525.88,154.92,525.88,154.92"/>
    </g>
    <path class="cls-5" d="M320.99,467.7c61.52-25.29,222.12-65.31,273.21-11.38-86.51-113.77-334.47,16.84-334.47,16.84,33.16-31.14,80.86-56.77,80.86-56.77C94.22,478.11,9.4,644.92,9.4,644.92v15.06c0,.27,0,.55,0,.81v.07c0,.24.02.49.03.73v.06s0,.04,0,.04c.02.26.03.53.05.79v.05s.06.65.06.65v.09s.01.04.01.04v.06s.02.09.02.09v.1s.05.37.05.37v.09s.04.19.04.19v.09s.03.09.03.09l.05.37v.09s.03.09.03.09l.02.09v.09s.03.09.03.09l.06.37.02.09.03.18.02.09c2.82,15.11,16.15,26.65,32.04,26.65h138.12v-142.77c15.4-37.54,67.54-60.69,140.87-82.11"/>
    <g class="cls-11">
      <path class="cls-4" d="M66.53,692.58h113.58v-159.86c9.29-20.4,132.28-37.65,4.31-16.57-58.68,9.67-73.88,54.54-113.23,128.8-10.63,20.05-10.62,35.48-4.66,47.64"/>
    </g>
    <path class="cls-3" d="M320.99,467.7c61.52-25.29,222.12-65.31,273.21-11.38-86.51-113.77-341.72-3.53-341.72-3.53,33.17-31.14,80.86-56.77,80.86-56.77C86.97,457.75,9.4,644.92,9.4,644.92v15.06c0,.27,0,.55,0,.81v.07c0,.24.02.49.03.73v.06s0,.04,0,.04c.02.26.03.53.05.79v.05s.06.65.06.65v.09s.01.04.01.04v.06s.02.09.02.09v.1s.05.37.05.37v.09s.04.19.04.19v.09s.03.09.03.09l.05.37v.09s.03.09.03.09l.02.09v.09s.03.09.03.09l.06.37.02.09.03.18.02.09c2.82,15.11,16.15,26.65,32.04,26.65h75.12c-44.29-100.04,131.59-195.16,203.88-224.88"/>
    <path class="cls-6" d="M9.4,399.37c60.71-44.88,174.07-73.23,174.07-73.23-59.34.54-132.74,16.18-174.07,30.9v42.34Z"/>
    <path class="cls-7" d="M9.4,644.92s77.57-187.18,323.94-248.91c0,0-47.69,25.63-80.86,56.77,0,0,255.21-110.24,341.72,3.53-60.73-92.92-200.8-90.61-200.8-90.61,28.59-8.82,69.65-10.89,69.65-10.89-100.65-30.97-267.85,7.17-267.85,7.17,36.64-4.69,94.76,1.65,94.76,1.65C137.07,379.08,9.4,482.7,9.4,482.7v162.23Z"/>
  </g>
  <text class="cls-14" transform="translate(213.62 700.2)"><tspan x="0" y="0">a</tspan><tspan class="cls-17" x="195.93" y="0">b</tspan><tspan x="408.09" y="0">y</tspan></text>
  <text class="cls-16" transform="translate(18.44 876.42)"><tspan x="0" y="0">se</tspan><tspan class="cls-21" x="184.49" y="0">r</tspan><tspan x="295.87" y="0">vices</tspan></text>
  <text class="cls-12" transform="translate(3.25 961.12)"><tspan x="0" y="0">Insu</tspan><tspan class="cls-18" x="181.5" y="0">r</tspan><tspan x="212.11" y="0">ance &amp;</tspan><tspan class="cls-18" x="501.84" y="0"> </tspan><tspan class="cls-19" x="523.73" y="0">T</tspan><tspan x="575.72" y="0">axes</tspan></text>
  <text class="cls-13" transform="translate(782.38 103.23)"><tspan x="0" y="0">®</tspan></text>
</svg>