<?xml version="1.0" encoding="UTF-8"?>
<svg id="Layer_1" data-name="Layer 1" xmlns="http://www.w3.org/2000/svg" xmlns:xlink="http://www.w3.org/1999/xlink" viewBox="0 0 142.2 65.58">
  <defs>
    <style>
      .cls-1 {
        mask: url(#mask);
      }

      .cls-2 {
        fill: #496272;
      }

      .cls-2, .cls-3, .cls-4, .cls-5, .cls-6, .cls-7 {
        fill-rule: evenodd;
      }

      .cls-8 {
        font-family: Roboto-Regular, Roboto;
        font-size: 6.26px;
      }

      .cls-8, .cls-9 {
        fill: #333939;
      }

      .cls-10 {
        fill: url(#linear-gradient-3);
      }

      .cls-11 {
        fill: url(#linear-gradient-2);
      }

      .cls-3 {
        fill: #29437b;
      }

      .cls-4 {
        fill: #a2a9b0;
      }

      .cls-12 {
        fill: url(#linear-gradient);
      }

      .cls-13 {
        mask: url(#mask-1);
      }

      .cls-5, .cls-14 {
        fill: #00a1ce;
      }

      .cls-6 {
        fill: #4e5657;
      }

      .cls-15 {
        clip-rule: evenodd;
        fill: none;
      }

      .cls-14 {
        font-family: Pacifico-Regular, Pacifico;
        font-size: 24px;
      }

      .cls-16 {
        letter-spacing: -.01em;
      }

      .cls-17 {
        letter-spacing: -.02em;
      }

      .cls-18 {
        letter-spacing: -.02em;
      }

      .cls-19 {
        letter-spacing: -.06em;
      }

      .cls-9 {
        font-family: Montserrat-ExtraBold, Montserrat;
        font-size: 20px;
        font-weight: 700;
      }

      .cls-7 {
        fill: #333a3a;
      }

      .cls-20 {
        clip-path: url(#clippath);
      }

      .cls-21 {
        letter-spacing: .04em;
      }
    </style>
    <clipPath id="clippath">
      <path class="cls-15" d="M0,7c7.4,7.34,20.88,3.49,25.04,10.06-2.71-.72-7.27-.29-9.61.73,0,0,2.63-.21,4.15-.11,1.55,3.31,3.46,1.17,5.85,1.06,6.59-.3,11.55,4.38,12.7,9.88-.58-6.48-3.08-10.59-10.99-11.09l-.68-1.07c-3.41-4.35-7.38-5.16-8.93-6.12l18.02-.05V2.13c0-1.17-.96-2.13-2.13-2.13H2.13C.96,0,0,.96,0,2.13v8.9c2.77,1.43,8.29,2.52,8.29,2.52C2.6,11.18,0,7,0,7"/>
    </clipPath>
    <linearGradient id="linear-gradient" x1="0" y1="14.31" x2="38.14" y2="14.31" gradientUnits="userSpaceOnUse">
      <stop offset="0" stop-color="#00a9e7"/>
      <stop offset="1" stop-color="#53c9f4"/>
    </linearGradient>
    <linearGradient id="linear-gradient-2" x1="-2792.51" y1="323.26" x2="-2727.43" y2="241.49" gradientTransform="translate(2761.16 -255.6)" gradientUnits="userSpaceOnUse">
      <stop offset="0" stop-color="#fff"/>
      <stop offset="1" stop-color="#000"/>
    </linearGradient>
    <mask id="mask" x="1.26" y="0" width="34.3" height="10.29" maskUnits="userSpaceOnUse">
      <rect class="cls-11" x="1.26" width="34.3" height="10.29"/>
    </mask>
    <linearGradient id="linear-gradient-3" x1="-2777.8" y1="210.43" x2="-2746.93" y2="185.18" gradientTransform="translate(2767.63 -156.52)" xlink:href="#linear-gradient-2"/>
    <mask id="mask-1" x="3.46" y="31.9" width="11.72" height="12.13" maskUnits="userSpaceOnUse">
      <rect class="cls-10" x="3.46" y="31.9" width="11.72" height="12.13"/>
    </mask>
  </defs>
  <g>
    <g class="cls-20">
      <rect class="cls-12" width="38.14" height="28.63"/>
    </g>
    <path class="cls-5" d="M24.92,16.88c.04.06.08.12.12.18,0,0-.04-.06-.12-.18M0,7c7.21,7.16,20.19,3.68,24.71,9.58C18.46,8.19,7.39,10.47.49,3.83c-.17-.16-.34-.32-.49-.47v7.67c2.77,1.43,8.29,2.52,8.29,2.52C2.6,11.18,0,7,0,7Z"/>
    <g class="cls-1">
      <path class="cls-3" d="M35.56,10.29V2.13c0-1.17-.96-2.13-2.13-2.13H2.13c-.31,0-.6.07-.86.18C23.05-.03,35.56,10.29,35.56,10.29"/>
    </g>
    <path class="cls-2" d="M20.32,29.37c4.01-1.65,14.49-4.26,17.82-.74-5.64-7.42-21.81,1.1-21.81,1.1,2.16-2.03,5.27-3.7,5.27-3.7C5.53,30.05,0,40.93,0,40.93v.98s0,.04,0,.05H0s0,0,0,0c0,.02,0,.03,0,.05h0s0,.04,0,.06h0s0,.05,0,.05h0s0,0,0,0h0s0,0,0,0h0s0,.03,0,.03h0s0,.02,0,.02h0s0,.01,0,.01v.02s0,0,0,0h0s0,.01,0,.01h0s0,.01,0,.01v.02s0,0,0,0h0s0,.02,0,.02c.18.99,1.05,1.74,2.09,1.74h9.01v-9.31c1-2.45,4.4-3.96,9.19-5.35"/>
    <g class="cls-13">
      <path class="cls-6" d="M3.73,44.04h7.41v-10.43c.61-1.33,8.63-2.46.28-1.08-3.83.63-4.82,3.56-7.38,8.4-.69,1.31-.69,2.31-.3,3.11"/>
    </g>
    <path class="cls-7" d="M20.32,29.37c4.01-1.65,14.49-4.26,17.82-.74-5.64-7.42-22.29-.23-22.29-.23,2.16-2.03,5.27-3.7,5.27-3.7C5.06,28.72,0,40.93,0,40.93v.98s0,.04,0,.05H0s0,0,0,0c0,.02,0,.03,0,.05h0s0,.04,0,.06h0s0,.05,0,.05h0s0,0,0,0h0s0,0,0,0h0s0,.03,0,.03h0s0,.02,0,.02h0s0,.01,0,.01v.02s0,0,0,0h0s0,.01,0,.01h0s0,.01,0,.01v.02s0,0,0,0h0s0,.02,0,.02c.18.99,1.05,1.74,2.09,1.74h4.9c-2.89-6.52,8.58-12.73,13.3-14.67"/>
    <path class="cls-5" d="M0,24.91c3.96-2.93,11.35-4.78,11.35-4.78-3.87.04-8.66,1.06-11.35,2.01v2.76Z"/>
    <path class="cls-4" d="M0,40.93s5.06-12.21,21.13-16.23c0,0-3.11,1.67-5.27,3.7,0,0,16.64-7.19,22.29.23-3.96-6.06-13.1-5.91-13.1-5.91,1.86-.58,4.54-.71,4.54-.71-6.56-2.02-17.47.47-17.47.47,2.39-.31,6.18.11,6.18.11C8.33,23.59,0,30.35,0,30.35v10.58Z"/>
  </g>
  <text class="cls-9" transform="translate(13.32 44.27)"><tspan x="0" y="0">a</tspan><tspan class="cls-16" x="12.56" y="0">b</tspan><tspan x="26.16" y="0">y</tspan></text>
  <text class="cls-14" transform="translate(55.26 44.29)"><tspan x="0" y="0">se</tspan><tspan class="cls-21" x="19.68" y="0">r</tspan><tspan x="31.56" y="0">vices</tspan></text>
  <text class="cls-8" transform="translate(40.49 54.34)"><tspan x="0" y="0">Insu</tspan><tspan class="cls-18" x="11.84" y="0">r</tspan><tspan x="13.83" y="0">ance &amp;</tspan><tspan class="cls-17" x="32.73" y="0"> </tspan><tspan class="cls-19" x="34.16" y="0">T</tspan><tspan x="37.55" y="0">axes</tspan></text>
</svg>